<svg xmlns="http://www.w3.org/2000/svg" viewBox="0 0 328.19 156.95"><defs><style>.cls-1{fill:#e6e6e6;stroke:gray;stroke-miterlimit:10;stroke-width:4px;}</style></defs><g id="Capa_2" data-name="Capa 2"><g id="Capa_1-2" data-name="Capa 1"><polygon class="cls-1" points="155.05 154.95 21.34 154.95 30.89 135.85 40.44 116.75 49.99 97.65 69.09 59.45 78.64 40.35 88.19 21.24 69.09 21.24 59.54 40.35 49.99 59.45 30.89 97.65 21.34 116.75 11.79 135.85 2.24 116.75 11.79 97.65 21.34 78.55 30.89 59.45 40.44 40.35 49.99 21.24 59.54 2.14 116.84 2.14 107.29 21.24 97.74 40.35 88.19 59.45 78.64 78.55 69.09 97.65 59.54 116.75 49.99 135.85 126.39 135.85 116.84 116.75 78.64 116.75 88.19 97.65 126.39 97.65 135.94 116.75 145.49 135.85 155.05 154.95"/><path class="cls-1" d="M287.76,2H173.16c8.5,17,20.14,40.28,28.65,57.3h57.3c11.81,24.88,11.86,13.28,0,38.21h-38.2l9.55,19.1h38.2c4.75-9.51,14.34-28.69,19.1-38.2-4.75-9.53-14.34-28.67-19.1-38.21h-57.3l-9.55-19.1h76.4c6.11,12.18,22.33,44.73,28.65,57.31-8.51,17-20.15,40.28-28.65,57.3h-57.3C199.37,92.65,175.53,44.94,154.06,2H135l-19.1,38.2c18.59,37.2,38.7,77.41,57.31,114.61h19.1C174.72,119.72,152.52,75.36,135,40.2l9.55-19.1c21.5,42.95,45.41,90.83,66.86,133.71h76.4c10.65-21.33,27.55-55.08,38.2-76.41Z"/></g></g></svg>